<svg width="292" height="36" viewBox="0 0 292 36" fill="none" xmlns="http://www.w3.org/2000/svg">
<path d="M0 2C0 0.895431 0.895431 0 2 0H40C41.1046 0 42 0.895431 42 2V34C42 35.1046 41.1046 36 40 36H2C0.89543 36 0 35.1046 0 34V2Z" fill="#CFD4ED"/>
<path d="M15.8213 19.1924H18.3779L17.1201 15.2275L15.8213 19.1924ZM15.9512 12.9238H18.3301L21.8984 23H19.6152L18.9658 20.9287H15.2539L14.5566 23H12.3555L15.9512 12.9238ZM25.0156 23H23.0674V12.9238H25.0156V23ZM28.9121 23H26.9639V12.9238H28.9121V23Z" fill="#0D28A6"/>
<path d="M2 1H40V-1H2V1ZM41 2V34H43V2H41ZM40 35H2V37H40V35ZM1 34V2H-1V34H1ZM2 35C1.44772 35 1 34.5523 1 34H-1C-1 35.6569 0.343146 37 2 37V35ZM41 34C41 34.5523 40.5523 35 40 35V37C41.6569 37 43 35.6569 43 34H41ZM40 1C40.5523 1 41 1.44772 41 2H43C43 0.343146 41.6569 -1 40 -1V1ZM2 -1C0.343145 -1 -1 0.343147 -1 2H1C1 1.44772 1.44772 1 2 1V-1Z" fill="#0D28A6"/>
<path d="M58 2C58 0.895431 58.8954 0 60 0H118C119.105 0 120 0.895431 120 2V34C120 35.1046 119.105 36 118 36H60C58.8954 36 58 35.1046 58 34V2Z" fill="white"/>
<path d="M72.5908 19.8896C72.6546 20.3499 72.7799 20.694 72.9668 20.9219C73.3086 21.3366 73.8942 21.5439 74.7236 21.5439C75.2204 21.5439 75.6237 21.4893 75.9336 21.3799C76.5215 21.1702 76.8154 20.7806 76.8154 20.2109C76.8154 19.8783 76.6696 19.6208 76.3779 19.4385C76.0863 19.2607 75.6283 19.1035 75.0039 18.9668L73.9375 18.7275C72.8893 18.4906 72.1647 18.2331 71.7637 17.9551C71.0846 17.4902 70.7451 16.7633 70.7451 15.7744C70.7451 14.8721 71.0732 14.1224 71.7295 13.5254C72.3857 12.9284 73.3496 12.6299 74.6211 12.6299C75.6829 12.6299 76.5876 12.9124 77.335 13.4775C78.0869 14.0381 78.4811 14.8538 78.5176 15.9248H76.4941C76.4577 15.3187 76.1934 14.888 75.7012 14.6328C75.373 14.4642 74.9652 14.3799 74.4775 14.3799C73.9352 14.3799 73.5023 14.4893 73.1787 14.708C72.8551 14.9268 72.6934 15.2321 72.6934 15.624C72.6934 15.984 72.8529 16.2529 73.1719 16.4307C73.377 16.5492 73.8145 16.6882 74.4844 16.8477L76.2207 17.2646C76.9818 17.4469 77.556 17.6908 77.9434 17.9961C78.5449 18.4701 78.8457 19.1559 78.8457 20.0537C78.8457 20.9743 78.4925 21.7399 77.7861 22.3506C77.0843 22.9567 76.0908 23.2598 74.8057 23.2598C73.4932 23.2598 72.4609 22.9613 71.709 22.3643C70.957 21.7627 70.5811 20.9378 70.5811 19.8896H72.5908ZM88.5732 15.3848C88.9014 15.3848 89.2249 15.4486 89.5439 15.5762C89.863 15.7038 90.1523 15.9271 90.4121 16.2461C90.6217 16.5059 90.763 16.8249 90.8359 17.2031C90.8815 17.4538 90.9043 17.8206 90.9043 18.3037L90.8906 23H88.8945V18.2559C88.8945 17.9733 88.849 17.7409 88.7578 17.5586C88.5846 17.2122 88.2656 17.0391 87.8008 17.0391C87.263 17.0391 86.8916 17.2624 86.6865 17.709C86.5817 17.946 86.5293 18.2308 86.5293 18.5635V23H84.5674V18.5635C84.5674 18.1214 84.5218 17.8001 84.4307 17.5996C84.2666 17.2396 83.9453 17.0596 83.4668 17.0596C82.9108 17.0596 82.5371 17.2396 82.3457 17.5996C82.2409 17.8047 82.1885 18.11 82.1885 18.5156V23H80.2129V15.5625H82.1064V16.6494C82.348 16.262 82.5758 15.9863 82.79 15.8223C83.1683 15.5306 83.6582 15.3848 84.2598 15.3848C84.8294 15.3848 85.2897 15.5101 85.6406 15.7607C85.9232 15.9932 86.1374 16.2917 86.2832 16.6562C86.5384 16.2188 86.8551 15.8975 87.2334 15.6924C87.6344 15.4873 88.0811 15.3848 88.5732 15.3848ZM96.8105 19.377C96.6875 19.4544 96.5622 19.5182 96.4346 19.5684C96.3115 19.6139 96.1406 19.6572 95.9219 19.6982L95.4844 19.7803C95.0742 19.8532 94.7803 19.9421 94.6025 20.0469C94.3018 20.2246 94.1514 20.5003 94.1514 20.874C94.1514 21.2067 94.2425 21.4482 94.4248 21.5986C94.6117 21.7445 94.8372 21.8174 95.1016 21.8174C95.5208 21.8174 95.9059 21.6943 96.2568 21.4482C96.6123 21.2021 96.7969 20.7533 96.8105 20.1016V19.377ZM95.6279 18.4678C95.988 18.4222 96.2454 18.3652 96.4004 18.2969C96.6784 18.1784 96.8174 17.9938 96.8174 17.7432C96.8174 17.4378 96.7103 17.2282 96.4961 17.1143C96.2865 16.9958 95.9766 16.9365 95.5664 16.9365C95.1061 16.9365 94.7803 17.0505 94.5889 17.2783C94.4521 17.4469 94.361 17.6748 94.3154 17.9619H92.4355C92.4766 17.3102 92.6589 16.7747 92.9824 16.3555C93.4974 15.6992 94.3815 15.3711 95.6348 15.3711C96.4505 15.3711 97.1751 15.5329 97.8086 15.8564C98.4421 16.18 98.7588 16.7907 98.7588 17.6885V21.1064C98.7588 21.3434 98.7633 21.6305 98.7725 21.9678C98.7861 22.223 98.8249 22.3962 98.8887 22.4873C98.9525 22.5785 99.0482 22.6536 99.1758 22.7129V23H97.0566C96.9974 22.8496 96.9564 22.7083 96.9336 22.5762C96.9108 22.444 96.8926 22.2936 96.8789 22.125C96.61 22.4167 96.3001 22.665 95.9492 22.8701C95.5299 23.1117 95.056 23.2324 94.5273 23.2324C93.8529 23.2324 93.2946 23.041 92.8525 22.6582C92.415 22.2708 92.1963 21.724 92.1963 21.0176C92.1963 20.1016 92.5495 19.4385 93.2559 19.0283C93.6432 18.805 94.2129 18.6455 94.9648 18.5498L95.6279 18.4678ZM102.484 23H100.536V12.9238H102.484V23ZM106.381 23H104.433V12.9238H106.381V23Z" fill="#AEB7E1"/>
<path d="M60 1H118V-1H60V1ZM119 2V34H121V2H119ZM118 35H60V37H118V35ZM59 34V2H57V34H59ZM60 35C59.4477 35 59 34.5523 59 34H57C57 35.6569 58.3431 37 60 37V35ZM119 34C119 34.5523 118.552 35 118 35V37C119.657 37 121 35.6569 121 34H119ZM118 1C118.552 1 119 1.44772 119 2H121C121 0.343145 119.657 -1 118 -1V1ZM60 -1C58.3431 -1 57 0.343147 57 2H59C59 1.44772 59.4477 1 60 1V-1Z" fill="#AEB7E1"/>
<path d="M136 2C136 0.895431 136.895 0 138 0H211C212.105 0 213 0.895431 213 2V34C213 35.1046 212.105 36 211 36H138C136.895 36 136 35.1046 136 34V2Z" fill="white"/>
<path d="M155.745 12.9238H158.773V23H156.812V16.1846C156.812 15.9886 156.814 15.7152 156.818 15.3643C156.823 15.0088 156.825 14.7354 156.825 14.5439L154.918 23H152.874L150.98 14.5439C150.98 14.7354 150.983 15.0088 150.987 15.3643C150.992 15.7152 150.994 15.9886 150.994 16.1846V23H149.032V12.9238H152.095L153.927 20.8467L155.745 12.9238ZM163.511 16.957C163.06 16.957 162.709 17.0983 162.458 17.3809C162.212 17.6634 162.057 18.0462 161.993 18.5293H165.021C164.99 18.0143 164.832 17.6247 164.55 17.3604C164.272 17.0915 163.925 16.957 163.511 16.957ZM163.511 15.3506C164.131 15.3506 164.689 15.4668 165.186 15.6992C165.682 15.9316 166.092 16.2985 166.416 16.7998C166.708 17.2419 166.897 17.7546 166.983 18.3379C167.034 18.6797 167.054 19.1719 167.045 19.8145H161.945C161.973 20.5618 162.207 21.0859 162.649 21.3867C162.918 21.5736 163.242 21.667 163.62 21.667C164.021 21.667 164.347 21.5531 164.598 21.3252C164.734 21.2021 164.855 21.0312 164.96 20.8125H166.949C166.899 21.2546 166.669 21.7035 166.259 22.1592C165.621 22.8838 164.728 23.2461 163.579 23.2461C162.631 23.2461 161.795 22.9408 161.07 22.3301C160.346 21.7194 159.983 20.7259 159.983 19.3496C159.983 18.0599 160.309 17.071 160.961 16.3828C161.617 15.6947 162.467 15.3506 163.511 15.3506ZM171.112 15.3711C171.563 15.3711 171.965 15.4714 172.315 15.6719C172.666 15.8678 172.951 16.1413 173.17 16.4922V12.9375H175.146V23H173.252V21.9678C172.974 22.4098 172.657 22.7311 172.302 22.9316C171.946 23.1322 171.504 23.2324 170.976 23.2324C170.105 23.2324 169.371 22.8815 168.774 22.1797C168.182 21.4733 167.886 20.5687 167.886 19.4658C167.886 18.1943 168.177 17.194 168.761 16.4648C169.349 15.7357 170.132 15.3711 171.112 15.3711ZM171.536 21.5918C172.088 21.5918 172.507 21.3867 172.794 20.9766C173.081 20.5664 173.225 20.0355 173.225 19.3838C173.225 18.4723 172.994 17.8206 172.534 17.4287C172.252 17.1917 171.924 17.0732 171.55 17.0732C170.98 17.0732 170.561 17.2897 170.292 17.7227C170.028 18.151 169.896 18.6842 169.896 19.3223C169.896 20.0104 170.03 20.5618 170.299 20.9766C170.572 21.3867 170.985 21.5918 171.536 21.5918ZM178.926 14.6602H176.95V12.8623H178.926V14.6602ZM176.95 15.5488H178.926V23H176.95V15.5488ZM182.761 15.5488V20.04C182.761 20.4639 182.811 20.7829 182.911 20.9971C183.089 21.3753 183.438 21.5645 183.957 21.5645C184.622 21.5645 185.078 21.2956 185.324 20.7578C185.452 20.4661 185.516 20.0811 185.516 19.6025V15.5488H187.491V23H185.598V21.9473C185.579 21.9701 185.534 22.0384 185.461 22.1523C185.388 22.2663 185.301 22.3665 185.201 22.4531C184.896 22.7266 184.6 22.9134 184.312 23.0137C184.03 23.1139 183.697 23.1641 183.314 23.1641C182.212 23.1641 181.469 22.7676 181.086 21.9746C180.872 21.5371 180.765 20.8923 180.765 20.04V15.5488H182.761ZM197.704 15.3848C198.032 15.3848 198.356 15.4486 198.675 15.5762C198.994 15.7038 199.283 15.9271 199.543 16.2461C199.753 16.5059 199.894 16.8249 199.967 17.2031C200.012 17.4538 200.035 17.8206 200.035 18.3037L200.021 23H198.025V18.2559C198.025 17.9733 197.98 17.7409 197.889 17.5586C197.715 17.2122 197.396 17.0391 196.932 17.0391C196.394 17.0391 196.022 17.2624 195.817 17.709C195.713 17.946 195.66 18.2308 195.66 18.5635V23H193.698V18.5635C193.698 18.1214 193.653 17.8001 193.562 17.5996C193.397 17.2396 193.076 17.0596 192.598 17.0596C192.042 17.0596 191.668 17.2396 191.477 17.5996C191.372 17.8047 191.319 18.11 191.319 18.5156V23H189.344V15.5625H191.237V16.6494C191.479 16.262 191.707 15.9863 191.921 15.8223C192.299 15.5306 192.789 15.3848 193.391 15.3848C193.96 15.3848 194.421 15.5101 194.771 15.7607C195.054 15.9932 195.268 16.2917 195.414 16.6562C195.669 16.2188 195.986 15.8975 196.364 15.6924C196.765 15.4873 197.212 15.3848 197.704 15.3848Z" fill="#AEB7E1"/>
<path d="M138 1H211V-1H138V1ZM212 2V34H214V2H212ZM211 35H138V37H211V35ZM137 34V2H135V34H137ZM138 35C137.448 35 137 34.5523 137 34H135C135 35.6569 136.343 37 138 37V35ZM212 34C212 34.5523 211.552 35 211 35V37C212.657 37 214 35.6569 214 34H212ZM211 1C211.552 1 212 1.44772 212 2H214C214 0.343145 212.657 -1 211 -1V1ZM138 -1C136.343 -1 135 0.343147 135 2H137C137 1.44772 137.448 1 138 1V-1Z" fill="#AEB7E1"/>
<path d="M229 2C229 0.895431 229.895 0 231 0H290C291.105 0 292 0.895431 292 2V34C292 35.1046 291.105 36 290 36H231C229.895 36 229 35.1046 229 34V2Z" fill="white"/>
<path d="M242.066 12.9238H244.172V21.1885H249.162V23H242.066V12.9238ZM254.576 19.377C254.453 19.4544 254.328 19.5182 254.2 19.5684C254.077 19.6139 253.906 19.6572 253.688 19.6982L253.25 19.7803C252.84 19.8532 252.546 19.9421 252.368 20.0469C252.067 20.2246 251.917 20.5003 251.917 20.874C251.917 21.2067 252.008 21.4482 252.19 21.5986C252.377 21.7445 252.603 21.8174 252.867 21.8174C253.286 21.8174 253.672 21.6943 254.022 21.4482C254.378 21.2021 254.562 20.7533 254.576 20.1016V19.377ZM253.394 18.4678C253.754 18.4222 254.011 18.3652 254.166 18.2969C254.444 18.1784 254.583 17.9938 254.583 17.7432C254.583 17.4378 254.476 17.2282 254.262 17.1143C254.052 16.9958 253.742 16.9365 253.332 16.9365C252.872 16.9365 252.546 17.0505 252.354 17.2783C252.218 17.4469 252.127 17.6748 252.081 17.9619H250.201C250.242 17.3102 250.424 16.7747 250.748 16.3555C251.263 15.6992 252.147 15.3711 253.4 15.3711C254.216 15.3711 254.941 15.5329 255.574 15.8564C256.208 16.18 256.524 16.7907 256.524 17.6885V21.1064C256.524 21.3434 256.529 21.6305 256.538 21.9678C256.552 22.223 256.59 22.3962 256.654 22.4873C256.718 22.5785 256.814 22.6536 256.941 22.7129V23H254.822C254.763 22.8496 254.722 22.7083 254.699 22.5762C254.676 22.444 254.658 22.2936 254.645 22.125C254.376 22.4167 254.066 22.665 253.715 22.8701C253.296 23.1117 252.822 23.2324 252.293 23.2324C251.618 23.2324 251.06 23.041 250.618 22.6582C250.181 22.2708 249.962 21.724 249.962 21.0176C249.962 20.1016 250.315 19.4385 251.021 19.0283C251.409 18.805 251.979 18.6455 252.73 18.5498L253.394 18.4678ZM262.308 15.3711C262.344 15.3711 262.374 15.3734 262.396 15.3779C262.424 15.3779 262.481 15.3802 262.567 15.3848V17.3809C262.444 17.3672 262.335 17.3581 262.239 17.3535C262.144 17.349 262.066 17.3467 262.007 17.3467C261.223 17.3467 260.697 17.6019 260.428 18.1123C260.277 18.3994 260.202 18.8415 260.202 19.4385V23H258.24V15.5488H260.1V16.8477C260.4 16.3509 260.662 16.0114 260.886 15.8291C261.25 15.5238 261.724 15.3711 262.308 15.3711ZM266.915 21.4004C267.371 21.4004 267.756 21.2295 268.07 20.8877C268.385 20.5413 268.542 19.9922 268.542 19.2402C268.542 18.5339 268.392 17.9961 268.091 17.627C267.795 17.2578 267.396 17.0732 266.895 17.0732C266.211 17.0732 265.739 17.3945 265.479 18.0371C265.343 18.3789 265.274 18.8005 265.274 19.3018C265.274 19.7347 265.347 20.1198 265.493 20.457C265.757 21.0859 266.231 21.4004 266.915 21.4004ZM266.43 15.3711C266.803 15.3711 267.129 15.4281 267.407 15.542C267.881 15.738 268.264 16.098 268.556 16.6221V15.5488H270.449V22.6172C270.449 23.5788 270.287 24.3034 269.964 24.791C269.408 25.6296 268.341 26.0488 266.765 26.0488C265.812 26.0488 265.035 25.862 264.434 25.4883C263.832 25.1146 263.499 24.5563 263.436 23.8135H265.555C265.609 24.0413 265.698 24.2054 265.821 24.3057C266.031 24.4834 266.384 24.5723 266.881 24.5723C267.583 24.5723 268.052 24.3376 268.289 23.8682C268.444 23.5674 268.521 23.0615 268.521 22.3506V21.8721C268.335 22.1911 268.134 22.4303 267.92 22.5898C267.533 22.8861 267.029 23.0342 266.409 23.0342C265.452 23.0342 264.687 22.6992 264.112 22.0293C263.543 21.3548 263.258 20.4434 263.258 19.2949C263.258 18.1875 263.534 17.2578 264.085 16.5059C264.636 15.7493 265.418 15.3711 266.43 15.3711ZM275.214 16.957C274.763 16.957 274.412 17.0983 274.161 17.3809C273.915 17.6634 273.76 18.0462 273.696 18.5293H276.725C276.693 18.0143 276.535 17.6247 276.253 17.3604C275.975 17.0915 275.629 16.957 275.214 16.957ZM275.214 15.3506C275.834 15.3506 276.392 15.4668 276.889 15.6992C277.385 15.9316 277.796 16.2985 278.119 16.7998C278.411 17.2419 278.6 17.7546 278.687 18.3379C278.737 18.6797 278.757 19.1719 278.748 19.8145H273.648C273.676 20.5618 273.91 21.0859 274.353 21.3867C274.621 21.5736 274.945 21.667 275.323 21.667C275.724 21.667 276.05 21.5531 276.301 21.3252C276.438 21.2021 276.558 21.0312 276.663 20.8125H278.652C278.602 21.2546 278.372 21.7035 277.962 22.1592C277.324 22.8838 276.431 23.2461 275.282 23.2461C274.334 23.2461 273.498 22.9408 272.773 22.3301C272.049 21.7194 271.687 20.7259 271.687 19.3496C271.687 18.0599 272.012 17.071 272.664 16.3828C273.32 15.6947 274.17 15.3506 275.214 15.3506Z" fill="#AEB7E1"/>
<path d="M231 1H290V-1H231V1ZM291 2V34H293V2H291ZM290 35H231V37H290V35ZM230 34V2H228V34H230ZM231 35C230.448 35 230 34.5523 230 34H228C228 35.6569 229.343 37 231 37V35ZM291 34C291 34.5523 290.552 35 290 35V37C291.657 37 293 35.6569 293 34H291ZM290 1C290.552 1 291 1.44772 291 2H293C293 0.343146 291.657 -1 290 -1V1ZM231 -1C229.343 -1 228 0.343147 228 2H230C230 1.44772 230.448 1 231 1V-1Z" fill="#AEB7E1"/>
</svg>
