<svg width="42" height="36" viewBox="0 0 42 36" fill="none" xmlns="http://www.w3.org/2000/svg">
<path d="M0 2C0 0.895431 0.895431 0 2 0H40C41.1046 0 42 0.895431 42 2V34C42 35.1046 41.1046 36 40 36H2C0.89543 36 0 35.1046 0 34V2Z" fill="#CFD4ED"/>
<path d="M15.8213 19.1924H18.3779L17.1201 15.2275L15.8213 19.1924ZM15.9512 12.9238H18.3301L21.8984 23H19.6152L18.9658 20.9287H15.2539L14.5566 23H12.3555L15.9512 12.9238ZM25.0156 23H23.0674V12.9238H25.0156V23ZM28.9121 23H26.9639V12.9238H28.9121V23Z" fill="#0D28A6"/>
<path d="M2 1H40V-1H2V1ZM41 2V34H43V2H41ZM40 35H2V37H40V35ZM1 34V2H-1V34H1ZM2 35C1.44772 35 1 34.5523 1 34H-1C-1 35.6569 0.343146 37 2 37V35ZM41 34C41 34.5523 40.5523 35 40 35V37C41.6569 37 43 35.6569 43 34H41ZM40 1C40.5523 1 41 1.44772 41 2H43C43 0.343146 41.6569 -1 40 -1V1ZM2 -1C0.343145 -1 -1 0.343147 -1 2H1C1 1.44772 1.44772 1 2 1V-1Z" fill="#0D28A6"/>
</svg>
