<svg width="62" height="36" viewBox="0 0 62 36" fill="none" xmlns="http://www.w3.org/2000/svg">
<path d="M0 2C0 0.895431 0.89543 0 2 0H60C61.1046 0 62 0.895431 62 2V34C62 35.1046 61.1046 36 60 36H2C0.895432 36 0 35.1046 0 34V2Z" fill="white"/>
<path d="M14.5908 19.8896C14.6546 20.3499 14.7799 20.694 14.9668 20.9219C15.3086 21.3366 15.8942 21.5439 16.7236 21.5439C17.2204 21.5439 17.6237 21.4893 17.9336 21.3799C18.5215 21.1702 18.8154 20.7806 18.8154 20.2109C18.8154 19.8783 18.6696 19.6208 18.3779 19.4385C18.0863 19.2607 17.6283 19.1035 17.0039 18.9668L15.9375 18.7275C14.8893 18.4906 14.1647 18.2331 13.7637 17.9551C13.0846 17.4902 12.7451 16.7633 12.7451 15.7744C12.7451 14.8721 13.0732 14.1224 13.7295 13.5254C14.3857 12.9284 15.3496 12.6299 16.6211 12.6299C17.6829 12.6299 18.5876 12.9124 19.335 13.4775C20.0869 14.0381 20.4811 14.8538 20.5176 15.9248H18.4941C18.4577 15.3187 18.1934 14.888 17.7012 14.6328C17.373 14.4642 16.9652 14.3799 16.4775 14.3799C15.9352 14.3799 15.5023 14.4893 15.1787 14.708C14.8551 14.9268 14.6934 15.2321 14.6934 15.624C14.6934 15.984 14.8529 16.2529 15.1719 16.4307C15.377 16.5492 15.8145 16.6882 16.4844 16.8477L18.2207 17.2646C18.9818 17.4469 19.556 17.6908 19.9434 17.9961C20.5449 18.4701 20.8457 19.1559 20.8457 20.0537C20.8457 20.9743 20.4925 21.7399 19.7861 22.3506C19.0843 22.9567 18.0908 23.2598 16.8057 23.2598C15.4932 23.2598 14.4609 22.9613 13.709 22.3643C12.957 21.7627 12.5811 20.9378 12.5811 19.8896H14.5908ZM30.5732 15.3848C30.9014 15.3848 31.2249 15.4486 31.5439 15.5762C31.863 15.7038 32.1523 15.9271 32.4121 16.2461C32.6217 16.5059 32.763 16.8249 32.8359 17.2031C32.8815 17.4538 32.9043 17.8206 32.9043 18.3037L32.8906 23H30.8945V18.2559C30.8945 17.9733 30.849 17.7409 30.7578 17.5586C30.5846 17.2122 30.2656 17.0391 29.8008 17.0391C29.263 17.0391 28.8916 17.2624 28.6865 17.709C28.5817 17.946 28.5293 18.2308 28.5293 18.5635V23H26.5674V18.5635C26.5674 18.1214 26.5218 17.8001 26.4307 17.5996C26.2666 17.2396 25.9453 17.0596 25.4668 17.0596C24.9108 17.0596 24.5371 17.2396 24.3457 17.5996C24.2409 17.8047 24.1885 18.11 24.1885 18.5156V23H22.2129V15.5625H24.1064V16.6494C24.348 16.262 24.5758 15.9863 24.79 15.8223C25.1683 15.5306 25.6582 15.3848 26.2598 15.3848C26.8294 15.3848 27.2897 15.5101 27.6406 15.7607C27.9232 15.9932 28.1374 16.2917 28.2832 16.6562C28.5384 16.2188 28.8551 15.8975 29.2334 15.6924C29.6344 15.4873 30.0811 15.3848 30.5732 15.3848ZM38.8105 19.377C38.6875 19.4544 38.5622 19.5182 38.4346 19.5684C38.3115 19.6139 38.1406 19.6572 37.9219 19.6982L37.4844 19.7803C37.0742 19.8532 36.7803 19.9421 36.6025 20.0469C36.3018 20.2246 36.1514 20.5003 36.1514 20.874C36.1514 21.2067 36.2425 21.4482 36.4248 21.5986C36.6117 21.7445 36.8372 21.8174 37.1016 21.8174C37.5208 21.8174 37.9059 21.6943 38.2568 21.4482C38.6123 21.2021 38.7969 20.7533 38.8105 20.1016V19.377ZM37.6279 18.4678C37.988 18.4222 38.2454 18.3652 38.4004 18.2969C38.6784 18.1784 38.8174 17.9938 38.8174 17.7432C38.8174 17.4378 38.7103 17.2282 38.4961 17.1143C38.2865 16.9958 37.9766 16.9365 37.5664 16.9365C37.1061 16.9365 36.7803 17.0505 36.5889 17.2783C36.4521 17.4469 36.361 17.6748 36.3154 17.9619H34.4355C34.4766 17.3102 34.6589 16.7747 34.9824 16.3555C35.4974 15.6992 36.3815 15.3711 37.6348 15.3711C38.4505 15.3711 39.1751 15.5329 39.8086 15.8564C40.4421 16.18 40.7588 16.7907 40.7588 17.6885V21.1064C40.7588 21.3434 40.7633 21.6305 40.7725 21.9678C40.7861 22.223 40.8249 22.3962 40.8887 22.4873C40.9525 22.5785 41.0482 22.6536 41.1758 22.7129V23H39.0566C38.9974 22.8496 38.9564 22.7083 38.9336 22.5762C38.9108 22.444 38.8926 22.2936 38.8789 22.125C38.61 22.4167 38.3001 22.665 37.9492 22.8701C37.5299 23.1117 37.056 23.2324 36.5273 23.2324C35.8529 23.2324 35.2946 23.041 34.8525 22.6582C34.415 22.2708 34.1963 21.724 34.1963 21.0176C34.1963 20.1016 34.5495 19.4385 35.2559 19.0283C35.6432 18.805 36.2129 18.6455 36.9648 18.5498L37.6279 18.4678ZM44.4844 23H42.5361V12.9238H44.4844V23ZM48.3809 23H46.4326V12.9238H48.3809V23Z" fill="#AEB7E1"/>
<path d="M2 1H60V-1H2V1ZM61 2V34H63V2H61ZM60 35H2V37H60V35ZM1 34V2H-1V34H1ZM2 35C1.44772 35 1 34.5523 1 34H-1C-1 35.6569 0.343149 37 2 37V35ZM61 34C61 34.5523 60.5523 35 60 35V37C61.6569 37 63 35.6569 63 34H61ZM60 1C60.5523 1 61 1.44772 61 2H63C63 0.343145 61.6569 -1 60 -1V1ZM2 -1C0.343145 -1 -1 0.343147 -1 2H1C1 1.44772 1.44772 1 2 1V-1Z" fill="#AEB7E1"/>
</svg>
