<svg width="77" height="36" viewBox="0 0 77 36" fill="none" xmlns="http://www.w3.org/2000/svg">
<path d="M0 2C0 0.895431 0.895431 0 2 0H75C76.1046 0 77 0.895431 77 2V34C77 35.1046 76.1046 36 75 36H2C0.895431 36 0 35.1046 0 34V2Z" fill="white"/>
<path d="M19.7451 12.9238H22.7734V23H20.8115V16.1846C20.8115 15.9886 20.8138 15.7152 20.8184 15.3643C20.8229 15.0088 20.8252 14.7354 20.8252 14.5439L18.918 23H16.874L14.9805 14.5439C14.9805 14.7354 14.9827 15.0088 14.9873 15.3643C14.9919 15.7152 14.9941 15.9886 14.9941 16.1846V23H13.0322V12.9238H16.0947L17.9268 20.8467L19.7451 12.9238ZM27.5107 16.957C27.0596 16.957 26.7087 17.0983 26.458 17.3809C26.2119 17.6634 26.057 18.0462 25.9932 18.5293H29.0215C28.9896 18.0143 28.8324 17.6247 28.5498 17.3604C28.2718 17.0915 27.9255 16.957 27.5107 16.957ZM27.5107 15.3506C28.1305 15.3506 28.6888 15.4668 29.1855 15.6992C29.6823 15.9316 30.0924 16.2985 30.416 16.7998C30.7077 17.2419 30.8968 17.7546 30.9834 18.3379C31.0335 18.6797 31.054 19.1719 31.0449 19.8145H25.9453C25.9727 20.5618 26.2074 21.0859 26.6494 21.3867C26.9183 21.5736 27.2419 21.667 27.6201 21.667C28.0212 21.667 28.347 21.5531 28.5977 21.3252C28.7344 21.2021 28.8551 21.0312 28.96 20.8125H30.9492C30.8991 21.2546 30.6689 21.7035 30.2588 22.1592C29.6208 22.8838 28.7275 23.2461 27.5791 23.2461C26.6312 23.2461 25.7949 22.9408 25.0703 22.3301C24.3457 21.7194 23.9834 20.7259 23.9834 19.3496C23.9834 18.0599 24.3092 17.071 24.9609 16.3828C25.6172 15.6947 26.4671 15.3506 27.5107 15.3506ZM35.1123 15.3711C35.5635 15.3711 35.9645 15.4714 36.3154 15.6719C36.6663 15.8678 36.9512 16.1413 37.1699 16.4922V12.9375H39.1455V23H37.252V21.9678C36.974 22.4098 36.6572 22.7311 36.3018 22.9316C35.9463 23.1322 35.5042 23.2324 34.9756 23.2324C34.1051 23.2324 33.3714 22.8815 32.7744 22.1797C32.182 21.4733 31.8857 20.5687 31.8857 19.4658C31.8857 18.1943 32.1774 17.194 32.7607 16.4648C33.3486 15.7357 34.1325 15.3711 35.1123 15.3711ZM35.5361 21.5918C36.0876 21.5918 36.5068 21.3867 36.7939 20.9766C37.0811 20.5664 37.2246 20.0355 37.2246 19.3838C37.2246 18.4723 36.9945 17.8206 36.5342 17.4287C36.2516 17.1917 35.9235 17.0732 35.5498 17.0732C34.9801 17.0732 34.5609 17.2897 34.292 17.7227C34.0277 18.151 33.8955 18.6842 33.8955 19.3223C33.8955 20.0104 34.0299 20.5618 34.2988 20.9766C34.5723 21.3867 34.9847 21.5918 35.5361 21.5918ZM42.9258 14.6602H40.9502V12.8623H42.9258V14.6602ZM40.9502 15.5488H42.9258V23H40.9502V15.5488ZM46.7607 15.5488V20.04C46.7607 20.4639 46.8109 20.7829 46.9111 20.9971C47.0889 21.3753 47.4375 21.5645 47.957 21.5645C48.6224 21.5645 49.0781 21.2956 49.3242 20.7578C49.4518 20.4661 49.5156 20.0811 49.5156 19.6025V15.5488H51.4912V23H49.5977V21.9473C49.5794 21.9701 49.5339 22.0384 49.4609 22.1523C49.388 22.2663 49.3014 22.3665 49.2012 22.4531C48.8958 22.7266 48.5996 22.9134 48.3125 23.0137C48.0299 23.1139 47.6973 23.1641 47.3145 23.1641C46.2116 23.1641 45.4688 22.7676 45.0859 21.9746C44.8717 21.5371 44.7646 20.8923 44.7646 20.04V15.5488H46.7607ZM61.7041 15.3848C62.0322 15.3848 62.3558 15.4486 62.6748 15.5762C62.9938 15.7038 63.2832 15.9271 63.543 16.2461C63.7526 16.5059 63.8939 16.8249 63.9668 17.2031C64.0124 17.4538 64.0352 17.8206 64.0352 18.3037L64.0215 23H62.0254V18.2559C62.0254 17.9733 61.9798 17.7409 61.8887 17.5586C61.7155 17.2122 61.3965 17.0391 60.9316 17.0391C60.3939 17.0391 60.0225 17.2624 59.8174 17.709C59.7126 17.946 59.6602 18.2308 59.6602 18.5635V23H57.6982V18.5635C57.6982 18.1214 57.6527 17.8001 57.5615 17.5996C57.3975 17.2396 57.0762 17.0596 56.5977 17.0596C56.0417 17.0596 55.668 17.2396 55.4766 17.5996C55.3717 17.8047 55.3193 18.11 55.3193 18.5156V23H53.3438V15.5625H55.2373V16.6494C55.4788 16.262 55.7067 15.9863 55.9209 15.8223C56.2992 15.5306 56.7891 15.3848 57.3906 15.3848C57.9603 15.3848 58.4206 15.5101 58.7715 15.7607C59.054 15.9932 59.2682 16.2917 59.4141 16.6562C59.6693 16.2188 59.986 15.8975 60.3643 15.6924C60.7653 15.4873 61.2119 15.3848 61.7041 15.3848Z" fill="#AEB7E1"/>
<path d="M2 1H75V-1H2V1ZM76 2V34H78V2H76ZM75 35H2V37H75V35ZM1 34V2H-1V34H1ZM2 35C1.44772 35 1 34.5523 1 34H-1C-1 35.6569 0.343147 37 2 37V35ZM76 34C76 34.5523 75.5523 35 75 35V37C76.6569 37 78 35.6569 78 34H76ZM75 1C75.5523 1 76 1.44772 76 2H78C78 0.343145 76.6569 -1 75 -1V1ZM2 -1C0.343145 -1 -1 0.343147 -1 2H1C1 1.44772 1.44772 1 2 1V-1Z" fill="#AEB7E1"/>
</svg>
