<svg width="63" height="36" viewBox="0 0 63 36" fill="none" xmlns="http://www.w3.org/2000/svg">
<path d="M0 2C0 0.895431 0.895431 0 2 0H61C62.1046 0 63 0.895431 63 2V34C63 35.1046 62.1046 36 61 36H2C0.89543 36 0 35.1046 0 34V2Z" fill="white"/>
<path d="M13.0664 12.9238H15.1719V21.1885H20.1621V23H13.0664V12.9238ZM25.5762 19.377C25.4531 19.4544 25.3278 19.5182 25.2002 19.5684C25.0771 19.6139 24.9062 19.6572 24.6875 19.6982L24.25 19.7803C23.8398 19.8532 23.5459 19.9421 23.3682 20.0469C23.0674 20.2246 22.917 20.5003 22.917 20.874C22.917 21.2067 23.0081 21.4482 23.1904 21.5986C23.3773 21.7445 23.6029 21.8174 23.8672 21.8174C24.2865 21.8174 24.6715 21.6943 25.0225 21.4482C25.3779 21.2021 25.5625 20.7533 25.5762 20.1016V19.377ZM24.3936 18.4678C24.7536 18.4222 25.0111 18.3652 25.166 18.2969C25.444 18.1784 25.583 17.9938 25.583 17.7432C25.583 17.4378 25.4759 17.2282 25.2617 17.1143C25.0521 16.9958 24.7422 16.9365 24.332 16.9365C23.8717 16.9365 23.5459 17.0505 23.3545 17.2783C23.2178 17.4469 23.1266 17.6748 23.0811 17.9619H21.2012C21.2422 17.3102 21.4245 16.7747 21.748 16.3555C22.263 15.6992 23.1471 15.3711 24.4004 15.3711C25.2161 15.3711 25.9408 15.5329 26.5742 15.8564C27.2077 16.18 27.5244 16.7907 27.5244 17.6885V21.1064C27.5244 21.3434 27.529 21.6305 27.5381 21.9678C27.5518 22.223 27.5905 22.3962 27.6543 22.4873C27.7181 22.5785 27.8138 22.6536 27.9414 22.7129V23H25.8223C25.763 22.8496 25.722 22.7083 25.6992 22.5762C25.6764 22.444 25.6582 22.2936 25.6445 22.125C25.3757 22.4167 25.0658 22.665 24.7148 22.8701C24.2956 23.1117 23.8216 23.2324 23.293 23.2324C22.6185 23.2324 22.0602 23.041 21.6182 22.6582C21.1807 22.2708 20.9619 21.724 20.9619 21.0176C20.9619 20.1016 21.3151 19.4385 22.0215 19.0283C22.4089 18.805 22.9785 18.6455 23.7305 18.5498L24.3936 18.4678ZM33.3076 15.3711C33.3441 15.3711 33.3737 15.3734 33.3965 15.3779C33.4238 15.3779 33.4808 15.3802 33.5674 15.3848V17.3809C33.4443 17.3672 33.335 17.3581 33.2393 17.3535C33.1436 17.349 33.0661 17.3467 33.0068 17.3467C32.223 17.3467 31.6966 17.6019 31.4277 18.1123C31.2773 18.3994 31.2021 18.8415 31.2021 19.4385V23H29.2402V15.5488H31.0996V16.8477C31.4004 16.3509 31.6624 16.0114 31.8857 15.8291C32.2503 15.5238 32.7243 15.3711 33.3076 15.3711ZM37.915 21.4004C38.3708 21.4004 38.7559 21.2295 39.0703 20.8877C39.3848 20.5413 39.542 19.9922 39.542 19.2402C39.542 18.5339 39.3916 17.9961 39.0908 17.627C38.7946 17.2578 38.3958 17.0732 37.8945 17.0732C37.2109 17.0732 36.7393 17.3945 36.4795 18.0371C36.3428 18.3789 36.2744 18.8005 36.2744 19.3018C36.2744 19.7347 36.3473 20.1198 36.4932 20.457C36.7575 21.0859 37.2314 21.4004 37.915 21.4004ZM37.4297 15.3711C37.8034 15.3711 38.1292 15.4281 38.4072 15.542C38.8812 15.738 39.264 16.098 39.5557 16.6221V15.5488H41.4492V22.6172C41.4492 23.5788 41.2874 24.3034 40.9639 24.791C40.4079 25.6296 39.3415 26.0488 37.7646 26.0488C36.8122 26.0488 36.0352 25.862 35.4336 25.4883C34.832 25.1146 34.4993 24.5563 34.4355 23.8135H36.5547C36.6094 24.0413 36.6982 24.2054 36.8213 24.3057C37.0309 24.4834 37.3841 24.5723 37.8809 24.5723C38.5827 24.5723 39.0521 24.3376 39.2891 23.8682C39.444 23.5674 39.5215 23.0615 39.5215 22.3506V21.8721C39.3346 22.1911 39.1341 22.4303 38.9199 22.5898C38.5326 22.8861 38.029 23.0342 37.4092 23.0342C36.4521 23.0342 35.6865 22.6992 35.1123 22.0293C34.5426 21.3548 34.2578 20.4434 34.2578 19.2949C34.2578 18.1875 34.5335 17.2578 35.085 16.5059C35.6364 15.7493 36.418 15.3711 37.4297 15.3711ZM46.2139 16.957C45.7627 16.957 45.4118 17.0983 45.1611 17.3809C44.915 17.6634 44.7601 18.0462 44.6963 18.5293H47.7246C47.6927 18.0143 47.5355 17.6247 47.2529 17.3604C46.9749 17.0915 46.6286 16.957 46.2139 16.957ZM46.2139 15.3506C46.8337 15.3506 47.3919 15.4668 47.8887 15.6992C48.3854 15.9316 48.7956 16.2985 49.1191 16.7998C49.4108 17.2419 49.5999 17.7546 49.6865 18.3379C49.7367 18.6797 49.7572 19.1719 49.748 19.8145H44.6484C44.6758 20.5618 44.9105 21.0859 45.3525 21.3867C45.6214 21.5736 45.945 21.667 46.3232 21.667C46.7243 21.667 47.0501 21.5531 47.3008 21.3252C47.4375 21.2021 47.5583 21.0312 47.6631 20.8125H49.6523C49.6022 21.2546 49.3721 21.7035 48.9619 22.1592C48.3239 22.8838 47.4307 23.2461 46.2822 23.2461C45.3343 23.2461 44.498 22.9408 43.7734 22.3301C43.0488 21.7194 42.6865 20.7259 42.6865 19.3496C42.6865 18.0599 43.0124 17.071 43.6641 16.3828C44.3203 15.6947 45.1702 15.3506 46.2139 15.3506Z" fill="#AEB7E1"/>
<path d="M2 1H61V-1H2V1ZM62 2V34H64V2H62ZM61 35H2V37H61V35ZM1 34V2H-1V34H1ZM2 35C1.44772 35 1 34.5523 1 34H-1C-1 35.6569 0.343146 37 2 37V35ZM62 34C62 34.5523 61.5523 35 61 35V37C62.6569 37 64 35.6569 64 34H62ZM61 1C61.5523 1 62 1.44772 62 2H64C64 0.343146 62.6569 -1 61 -1V1ZM2 -1C0.343145 -1 -1 0.343147 -1 2H1C1 1.44772 1.44772 1 2 1V-1Z" fill="#AEB7E1"/>
</svg>
