<svg width="70" height="36" viewBox="0 0 70 36" fill="none" xmlns="http://www.w3.org/2000/svg">
<path d="M0 2C0 0.895431 0.895431 0 2 0H68C69.1046 0 70 0.895431 70 2V34C70 35.1046 69.1046 36 68 36H2C0.89543 36 0 35.1046 0 34V2Z" fill="white"/>
<path d="M12.6289 18.0439C12.6289 16.2848 13.1006 14.929 14.0439 13.9766C14.8643 13.1471 15.9079 12.7324 17.1748 12.7324C18.8701 12.7324 20.1097 13.2884 20.8936 14.4004C21.3265 15.0247 21.5589 15.6514 21.5908 16.2803H19.4854C19.3486 15.7972 19.1732 15.4326 18.959 15.1865C18.5762 14.749 18.0088 14.5303 17.2568 14.5303C16.4912 14.5303 15.8874 14.8402 15.4453 15.46C15.0033 16.0752 14.7822 16.9479 14.7822 18.0781C14.7822 19.2083 15.0146 20.056 15.4795 20.6211C15.9489 21.1816 16.5436 21.4619 17.2637 21.4619C18.002 21.4619 18.5648 21.2204 18.9521 20.7373C19.1663 20.4775 19.3441 20.0879 19.4854 19.5684H21.5703C21.388 20.6667 20.9209 21.5599 20.1689 22.248C19.4215 22.9362 18.4622 23.2803 17.291 23.2803C15.8418 23.2803 14.7025 22.8154 13.873 21.8857C13.0436 20.9515 12.6289 19.6709 12.6289 18.0439ZM27.1348 19.377C27.0117 19.4544 26.8864 19.5182 26.7588 19.5684C26.6357 19.6139 26.4648 19.6572 26.2461 19.6982L25.8086 19.7803C25.3984 19.8532 25.1045 19.9421 24.9268 20.0469C24.626 20.2246 24.4756 20.5003 24.4756 20.874C24.4756 21.2067 24.5667 21.4482 24.749 21.5986C24.9359 21.7445 25.1615 21.8174 25.4258 21.8174C25.8451 21.8174 26.2301 21.6943 26.5811 21.4482C26.9365 21.2021 27.1211 20.7533 27.1348 20.1016V19.377ZM25.9521 18.4678C26.3122 18.4222 26.5697 18.3652 26.7246 18.2969C27.0026 18.1784 27.1416 17.9938 27.1416 17.7432C27.1416 17.4378 27.0345 17.2282 26.8203 17.1143C26.6107 16.9958 26.3008 16.9365 25.8906 16.9365C25.4303 16.9365 25.1045 17.0505 24.9131 17.2783C24.7764 17.4469 24.6852 17.6748 24.6396 17.9619H22.7598C22.8008 17.3102 22.9831 16.7747 23.3066 16.3555C23.8216 15.6992 24.7057 15.3711 25.959 15.3711C26.7747 15.3711 27.4993 15.5329 28.1328 15.8564C28.7663 16.18 29.083 16.7907 29.083 17.6885V21.1064C29.083 21.3434 29.0876 21.6305 29.0967 21.9678C29.1104 22.223 29.1491 22.3962 29.2129 22.4873C29.2767 22.5785 29.3724 22.6536 29.5 22.7129V23H27.3809C27.3216 22.8496 27.2806 22.7083 27.2578 22.5762C27.235 22.444 27.2168 22.2936 27.2031 22.125C26.9342 22.4167 26.6243 22.665 26.2734 22.8701C25.8542 23.1117 25.3802 23.2324 24.8516 23.2324C24.1771 23.2324 23.6188 23.041 23.1768 22.6582C22.7393 22.2708 22.5205 21.724 22.5205 21.0176C22.5205 20.1016 22.8737 19.4385 23.5801 19.0283C23.9674 18.805 24.5371 18.6455 25.2891 18.5498L25.9521 18.4678ZM34.9482 15.3711C35.7184 15.3711 36.3473 15.5739 36.835 15.9795C37.3271 16.3805 37.5732 17.0482 37.5732 17.9824V23H35.5771V18.4678C35.5771 18.0758 35.5247 17.7751 35.4199 17.5654C35.2285 17.1826 34.8639 16.9912 34.3262 16.9912C33.6654 16.9912 33.2119 17.2715 32.9658 17.832C32.8382 18.1283 32.7744 18.5065 32.7744 18.9668V23H30.833V15.5625H32.7129V16.6494C32.9635 16.2666 33.2005 15.9909 33.4238 15.8223C33.8249 15.5215 34.333 15.3711 34.9482 15.3711ZM43.8281 18.2217C43.7917 17.9437 43.6982 17.693 43.5479 17.4697C43.3291 17.1689 42.9896 17.0186 42.5293 17.0186C41.873 17.0186 41.4242 17.3444 41.1826 17.9961C41.055 18.3424 40.9912 18.8027 40.9912 19.377C40.9912 19.9238 41.055 20.3636 41.1826 20.6963C41.415 21.3161 41.8525 21.626 42.4951 21.626C42.9508 21.626 43.2744 21.5029 43.4658 21.2568C43.6572 21.0107 43.7734 20.6917 43.8145 20.2998H45.8037C45.7581 20.8923 45.5439 21.4528 45.1611 21.9814C44.5505 22.8337 43.6458 23.2598 42.4473 23.2598C41.2487 23.2598 40.3669 22.9043 39.8018 22.1934C39.2367 21.4824 38.9541 20.5596 38.9541 19.4248C38.9541 18.1442 39.2663 17.1484 39.8906 16.4375C40.515 15.7266 41.3763 15.3711 42.4746 15.3711C43.4089 15.3711 44.1722 15.5807 44.7646 16C45.3617 16.4193 45.7148 17.1598 45.8242 18.2217H43.8281ZM50.1104 16.957C49.6592 16.957 49.3083 17.0983 49.0576 17.3809C48.8115 17.6634 48.6566 18.0462 48.5928 18.5293H51.6211C51.5892 18.0143 51.432 17.6247 51.1494 17.3604C50.8714 17.0915 50.5251 16.957 50.1104 16.957ZM50.1104 15.3506C50.7301 15.3506 51.2884 15.4668 51.7852 15.6992C52.2819 15.9316 52.6921 16.2985 53.0156 16.7998C53.3073 17.2419 53.4964 17.7546 53.583 18.3379C53.6331 18.6797 53.6536 19.1719 53.6445 19.8145H48.5449C48.5723 20.5618 48.807 21.0859 49.249 21.3867C49.5179 21.5736 49.8415 21.667 50.2197 21.667C50.6208 21.667 50.9466 21.5531 51.1973 21.3252C51.334 21.2021 51.4548 21.0312 51.5596 20.8125H53.5488C53.4987 21.2546 53.2686 21.7035 52.8584 22.1592C52.2204 22.8838 51.3271 23.2461 50.1787 23.2461C49.2308 23.2461 48.3945 22.9408 47.6699 22.3301C46.9453 21.7194 46.583 20.7259 46.583 19.3496C46.583 18.0599 46.9089 17.071 47.5605 16.3828C48.2168 15.6947 49.0667 15.3506 50.1104 15.3506ZM56.9531 23H55.0049V12.9238H56.9531V23Z" fill="#0D28A6"/>
<path d="M2 1H68V-1H2V1ZM69 2V34H71V2H69ZM68 35H2V37H68V35ZM1 34V2H-1V34H1ZM2 35C1.44772 35 1 34.5523 1 34H-1C-1 35.6569 0.343146 37 2 37V35ZM69 34C69 34.5523 68.5523 35 68 35V37C69.6569 37 71 35.6569 71 34H69ZM68 1C68.5523 1 69 1.44772 69 2H71C71 0.343146 69.6569 -1 68 -1V1ZM2 -1C0.343145 -1 -1 0.343147 -1 2H1C1 1.44772 1.44772 1 2 1V-1Z" fill="#0D28A6"/>
</svg>
