<svg width="76" height="36" viewBox="0 0 76 36" fill="none" xmlns="http://www.w3.org/2000/svg">
<path d="M0.5 2C0.5 1.17157 1.17157 0.5 2 0.5H75.5V35.5H2C1.17157 35.5 0.5 34.8284 0.5 34V2Z" fill="white"/>
<path d="M13.1484 16.0586V15.25C13.9102 15.1758 14.4414 15.0527 14.7422 14.8809C15.043 14.7051 15.2676 14.293 15.416 13.6445H16.248V22H15.123V16.0586H13.1484Z" fill="#8A8A8A"/>
<path d="M49 15.5L54 20.5L59 15.5" stroke="#D0D0D0" stroke-width="2" stroke-linecap="round" stroke-linejoin="round"/>
<path d="M0.5 2C0.5 1.17157 1.17157 0.5 2 0.5H75.5V35.5H2C1.17157 35.5 0.5 34.8284 0.5 34V2Z" stroke="#D0D0D0"/>
</svg>
