<svg width="58" height="36" viewBox="0 0 58 36" fill="none" xmlns="http://www.w3.org/2000/svg">
<rect x="0.5" y="0.5" width="57" height="35" rx="1.5" fill="white"/>
<path d="M13.1484 16.0586V15.25C13.9102 15.1758 14.4414 15.0527 14.7422 14.8809C15.043 14.7051 15.2676 14.293 15.416 13.6445H16.248V22H15.123V16.0586H13.1484ZM21.9258 13.6094C23.0117 13.6094 23.7969 14.0566 24.2812 14.9512C24.6562 15.6426 24.8438 16.5898 24.8438 17.793C24.8438 18.9336 24.6738 19.877 24.334 20.623C23.8418 21.6934 23.0371 22.2285 21.9199 22.2285C20.9121 22.2285 20.1621 21.791 19.6699 20.916C19.2598 20.1855 19.0547 19.2051 19.0547 17.9746C19.0547 17.0215 19.1777 16.2031 19.4238 15.5195C19.8848 14.2461 20.7188 13.6094 21.9258 13.6094ZM21.9141 21.2676C22.4609 21.2676 22.8965 21.0254 23.2207 20.541C23.5449 20.0566 23.707 19.1543 23.707 17.834C23.707 16.8809 23.5898 16.0977 23.3555 15.4844C23.1211 14.8672 22.666 14.5586 21.9902 14.5586C21.3691 14.5586 20.9141 14.8516 20.625 15.4375C20.3398 16.0195 20.1973 16.8789 20.1973 18.0156C20.1973 18.8711 20.2891 19.5586 20.4727 20.0781C20.7539 20.8711 21.2344 21.2676 21.9141 21.2676Z" fill="#8A8A8A"/>
<path d="M31 15.5L36 20.5L41 15.5" stroke="#D0D0D0" stroke-width="2" stroke-linecap="round" stroke-linejoin="round"/>
<rect x="0.5" y="0.5" width="57" height="35" rx="1.5" stroke="#D0D0D0"/>
</svg>
