<svg width="266" height="38" viewBox="0 0 266 38" fill="none" xmlns="http://www.w3.org/2000/svg">
<rect x="0.5" y="0.5" width="37" height="37" rx="1.5" fill="white"/>
<path d="M18.3333 22.3333L15 19L18.3333 15.6667" stroke="#8A8A8A" stroke-width="2" stroke-linecap="round" stroke-linejoin="round"/>
<path d="M23 22.3333L19.6666 19L23 15.6667" stroke="#8A8A8A" stroke-width="2" stroke-linecap="round" stroke-linejoin="round"/>
<rect x="0.5" y="0.5" width="37" height="37" rx="1.5" stroke="#D0D0D0"/>
<rect x="38.5" y="0.5" width="37" height="37" rx="1.5" fill="#CFD4ED"/>
<path d="M54.6484 17.0586V16.25C55.4102 16.1758 55.9414 16.0527 56.2422 15.8809C56.543 15.7051 56.7676 15.293 56.916 14.6445H57.748V23H56.623V17.0586H54.6484Z" fill="#0D28A6"/>
<rect x="38.5" y="0.5" width="37" height="37" rx="1.5" stroke="#0D28A6"/>
<rect x="76.5" y="0.5" width="37" height="37" rx="1.5" fill="white"/>
<path d="M91.875 23C91.9141 22.2773 92.0625 21.6484 92.3203 21.1133C92.582 20.5781 93.0898 20.0918 93.8438 19.6543L94.9688 19.0039C95.4727 18.7109 95.8262 18.4609 96.0293 18.2539C96.3496 17.9297 96.5098 17.5586 96.5098 17.1406C96.5098 16.6523 96.3633 16.2656 96.0703 15.9805C95.7773 15.6914 95.3867 15.5469 94.8984 15.5469C94.1758 15.5469 93.6758 15.8203 93.3984 16.3672C93.25 16.6602 93.168 17.0664 93.1523 17.5859H92.0801C92.0918 16.8555 92.2266 16.2598 92.4844 15.7988C92.9414 14.9863 93.748 14.5801 94.9043 14.5801C95.8652 14.5801 96.5664 14.8398 97.0078 15.3594C97.4531 15.8789 97.6758 16.457 97.6758 17.0938C97.6758 17.7656 97.4395 18.3398 96.9668 18.8164C96.6934 19.0938 96.2031 19.4297 95.4961 19.8242L94.6934 20.2695C94.3105 20.4805 94.0098 20.6816 93.791 20.873C93.4004 21.2129 93.1543 21.5898 93.0527 22.0039H97.6348V23H91.875Z" fill="#8A8A8A"/>
<rect x="76.5" y="0.5" width="37" height="37" rx="1.5" stroke="#D0D0D0"/>
<rect x="114.5" y="0.5" width="37" height="37" rx="1.5" fill="white"/>
<path d="M132.617 23.2285C131.625 23.2285 130.904 22.957 130.455 22.4141C130.01 21.8672 129.787 21.2031 129.787 20.4219H130.889C130.936 20.9648 131.037 21.3594 131.193 21.6055C131.467 22.0469 131.961 22.2676 132.676 22.2676C133.23 22.2676 133.676 22.1191 134.012 21.8223C134.348 21.5254 134.516 21.1426 134.516 20.6738C134.516 20.0957 134.338 19.6914 133.982 19.4609C133.631 19.2305 133.141 19.1152 132.512 19.1152C132.441 19.1152 132.369 19.1172 132.295 19.1211C132.225 19.1211 132.152 19.123 132.078 19.127V18.1953C132.188 18.207 132.279 18.2148 132.354 18.2188C132.428 18.2227 132.508 18.2246 132.594 18.2246C132.988 18.2246 133.312 18.1621 133.566 18.0371C134.012 17.8184 134.234 17.4277 134.234 16.8652C134.234 16.4473 134.086 16.125 133.789 15.8984C133.492 15.6719 133.146 15.5586 132.752 15.5586C132.049 15.5586 131.562 15.793 131.293 16.2617C131.145 16.5195 131.061 16.8867 131.041 17.3633H129.998C129.998 16.7383 130.123 16.207 130.373 15.7695C130.803 14.9883 131.559 14.5977 132.641 14.5977C133.496 14.5977 134.158 14.7891 134.627 15.1719C135.096 15.5508 135.33 16.1016 135.33 16.8242C135.33 17.3398 135.191 17.7578 134.914 18.0781C134.742 18.2773 134.52 18.4336 134.246 18.5469C134.688 18.668 135.031 18.9023 135.277 19.25C135.527 19.5938 135.652 20.0156 135.652 20.5156C135.652 21.3164 135.389 21.9688 134.861 22.4727C134.334 22.9766 133.586 23.2285 132.617 23.2285Z" fill="#8A8A8A"/>
<rect x="114.5" y="0.5" width="37" height="37" rx="1.5" stroke="#D0D0D0"/>
<rect x="152.5" y="0.5" width="37" height="37" rx="1.5" fill="white"/>
<path d="M167.008 23C166.928 23 166.86 22.972 166.804 22.916C166.748 22.86 166.72 22.792 166.72 22.712V21.524C166.72 21.436 166.748 21.364 166.804 21.308C166.86 21.252 166.928 21.224 167.008 21.224H168.208C168.288 21.224 168.356 21.252 168.412 21.308C168.468 21.364 168.496 21.436 168.496 21.524V22.712C168.496 22.792 168.468 22.86 168.412 22.916C168.356 22.972 168.288 23 168.208 23H167.008ZM170.219 23C170.139 23 170.071 22.972 170.015 22.916C169.959 22.86 169.931 22.792 169.931 22.712V21.524C169.931 21.436 169.959 21.364 170.015 21.308C170.071 21.252 170.139 21.224 170.219 21.224H171.419C171.499 21.224 171.567 21.252 171.623 21.308C171.679 21.364 171.707 21.436 171.707 21.524V22.712C171.707 22.792 171.679 22.86 171.623 22.916C171.567 22.972 171.499 23 171.419 23H170.219ZM173.43 23C173.35 23 173.282 22.972 173.226 22.916C173.17 22.86 173.142 22.792 173.142 22.712V21.524C173.142 21.436 173.17 21.364 173.226 21.308C173.282 21.252 173.35 21.224 173.43 21.224H174.63C174.71 21.224 174.778 21.252 174.834 21.308C174.89 21.364 174.918 21.436 174.918 21.524V22.712C174.918 22.792 174.89 22.86 174.834 22.916C174.778 22.972 174.71 23 174.63 23H173.43Z" fill="#8A8A8A"/>
<rect x="152.5" y="0.5" width="37" height="37" rx="1.5" stroke="#D0D0D0"/>
<rect x="190.5" y="0.5" width="37" height="37" rx="1.5" fill="white"/>
<path d="M207.094 20.9727C207.125 21.5547 207.35 21.957 207.768 22.1797C207.982 22.2969 208.225 22.3555 208.494 22.3555C208.998 22.3555 209.428 22.1465 209.783 21.7285C210.139 21.3066 210.391 20.4531 210.539 19.168C210.305 19.5391 210.014 19.8008 209.666 19.9531C209.322 20.1016 208.951 20.1758 208.553 20.1758C207.744 20.1758 207.104 19.9238 206.631 19.4199C206.162 18.916 205.928 18.2676 205.928 17.4746C205.928 16.7129 206.16 16.043 206.625 15.4648C207.09 14.8867 207.775 14.5977 208.682 14.5977C209.904 14.5977 210.748 15.1484 211.213 16.25C211.471 16.8555 211.6 17.6133 211.6 18.5234C211.6 19.5508 211.445 20.4609 211.137 21.2539C210.625 22.5742 209.758 23.2344 208.535 23.2344C207.715 23.2344 207.092 23.0195 206.666 22.5898C206.24 22.1602 206.027 21.6211 206.027 20.9727H207.094ZM208.693 19.25C209.111 19.25 209.492 19.1133 209.836 18.8398C210.184 18.5625 210.357 18.0801 210.357 17.3926C210.357 16.7754 210.201 16.3164 209.889 16.0156C209.58 15.7109 209.186 15.5586 208.705 15.5586C208.189 15.5586 207.779 15.7324 207.475 16.0801C207.174 16.4238 207.023 16.8848 207.023 17.4629C207.023 18.0098 207.156 18.4453 207.422 18.7695C207.688 19.0898 208.111 19.25 208.693 19.25Z" fill="#8A8A8A"/>
<rect x="190.5" y="0.5" width="37" height="37" rx="1.5" stroke="#D0D0D0"/>
<rect x="228.5" y="0.5" width="37" height="37" rx="1.5" fill="white"/>
<path d="M247.667 22.3333L251 19L247.667 15.6667" stroke="#8A8A8A" stroke-width="2" stroke-linecap="round" stroke-linejoin="round"/>
<path d="M243 22.3333L246.333 19L243 15.6667" stroke="#8A8A8A" stroke-width="2" stroke-linecap="round" stroke-linejoin="round"/>
<rect x="228.5" y="0.5" width="37" height="37" rx="1.5" stroke="#D0D0D0"/>
</svg>
