<svg width="57" height="36" viewBox="0 0 57 36" fill="none" xmlns="http://www.w3.org/2000/svg">
<path d="M0 2C0 0.895431 0.895431 0 2 0H55C56.1046 0 57 0.895431 57 2V34C57 35.1046 56.1046 36 55 36H2C0.89543 36 0 35.1046 0 34V2Z" fill="#0D28A6"/>
<path d="M14.5908 19.8896C14.6546 20.3499 14.7799 20.694 14.9668 20.9219C15.3086 21.3366 15.8942 21.5439 16.7236 21.5439C17.2204 21.5439 17.6237 21.4893 17.9336 21.3799C18.5215 21.1702 18.8154 20.7806 18.8154 20.2109C18.8154 19.8783 18.6696 19.6208 18.3779 19.4385C18.0863 19.2607 17.6283 19.1035 17.0039 18.9668L15.9375 18.7275C14.8893 18.4906 14.1647 18.2331 13.7637 17.9551C13.0846 17.4902 12.7451 16.7633 12.7451 15.7744C12.7451 14.8721 13.0732 14.1224 13.7295 13.5254C14.3857 12.9284 15.3496 12.6299 16.6211 12.6299C17.6829 12.6299 18.5876 12.9124 19.335 13.4775C20.0869 14.0381 20.4811 14.8538 20.5176 15.9248H18.4941C18.4577 15.3187 18.1934 14.888 17.7012 14.6328C17.373 14.4642 16.9652 14.3799 16.4775 14.3799C15.9352 14.3799 15.5023 14.4893 15.1787 14.708C14.8551 14.9268 14.6934 15.2321 14.6934 15.624C14.6934 15.984 14.8529 16.2529 15.1719 16.4307C15.377 16.5492 15.8145 16.6882 16.4844 16.8477L18.2207 17.2646C18.9818 17.4469 19.556 17.6908 19.9434 17.9961C20.5449 18.4701 20.8457 19.1559 20.8457 20.0537C20.8457 20.9743 20.4925 21.7399 19.7861 22.3506C19.0843 22.9567 18.0908 23.2598 16.8057 23.2598C15.4932 23.2598 14.4609 22.9613 13.709 22.3643C12.957 21.7627 12.5811 20.9378 12.5811 19.8896H14.5908ZM26.3555 19.377C26.2324 19.4544 26.1071 19.5182 25.9795 19.5684C25.8564 19.6139 25.6855 19.6572 25.4668 19.6982L25.0293 19.7803C24.6191 19.8532 24.3252 19.9421 24.1475 20.0469C23.8467 20.2246 23.6963 20.5003 23.6963 20.874C23.6963 21.2067 23.7874 21.4482 23.9697 21.5986C24.1566 21.7445 24.3822 21.8174 24.6465 21.8174C25.0658 21.8174 25.4508 21.6943 25.8018 21.4482C26.1572 21.2021 26.3418 20.7533 26.3555 20.1016V19.377ZM25.1729 18.4678C25.5329 18.4222 25.7904 18.3652 25.9453 18.2969C26.2233 18.1784 26.3623 17.9938 26.3623 17.7432C26.3623 17.4378 26.2552 17.2282 26.041 17.1143C25.8314 16.9958 25.5215 16.9365 25.1113 16.9365C24.651 16.9365 24.3252 17.0505 24.1338 17.2783C23.9971 17.4469 23.9059 17.6748 23.8604 17.9619H21.9805C22.0215 17.3102 22.2038 16.7747 22.5273 16.3555C23.0423 15.6992 23.9264 15.3711 25.1797 15.3711C25.9954 15.3711 26.7201 15.5329 27.3535 15.8564C27.987 16.18 28.3037 16.7907 28.3037 17.6885V21.1064C28.3037 21.3434 28.3083 21.6305 28.3174 21.9678C28.3311 22.223 28.3698 22.3962 28.4336 22.4873C28.4974 22.5785 28.5931 22.6536 28.7207 22.7129V23H26.6016C26.5423 22.8496 26.5013 22.7083 26.4785 22.5762C26.4557 22.444 26.4375 22.2936 26.4238 22.125C26.1549 22.4167 25.8451 22.665 25.4941 22.8701C25.0749 23.1117 24.6009 23.2324 24.0723 23.2324C23.3978 23.2324 22.8395 23.041 22.3975 22.6582C21.96 22.2708 21.7412 21.724 21.7412 21.0176C21.7412 20.1016 22.0944 19.4385 22.8008 19.0283C23.1882 18.805 23.7578 18.6455 24.5098 18.5498L25.1729 18.4678ZM34.6338 15.5488H36.7256L34.0391 23H31.9814L29.3086 15.5488H31.4961L33.0479 21.0449L34.6338 15.5488ZM40.7725 16.957C40.3213 16.957 39.9704 17.0983 39.7197 17.3809C39.4736 17.6634 39.3187 18.0462 39.2549 18.5293H42.2832C42.2513 18.0143 42.0941 17.6247 41.8115 17.3604C41.5335 17.0915 41.1872 16.957 40.7725 16.957ZM40.7725 15.3506C41.3923 15.3506 41.9505 15.4668 42.4473 15.6992C42.944 15.9316 43.3542 16.2985 43.6777 16.7998C43.9694 17.2419 44.1585 17.7546 44.2451 18.3379C44.2952 18.6797 44.3158 19.1719 44.3066 19.8145H39.207C39.2344 20.5618 39.4691 21.0859 39.9111 21.3867C40.18 21.5736 40.5036 21.667 40.8818 21.667C41.2829 21.667 41.6087 21.5531 41.8594 21.3252C41.9961 21.2021 42.1169 21.0312 42.2217 20.8125H44.2109C44.1608 21.2546 43.9307 21.7035 43.5205 22.1592C42.8825 22.8838 41.9893 23.2461 40.8408 23.2461C39.8929 23.2461 39.0566 22.9408 38.332 22.3301C37.6074 21.7194 37.2451 20.7259 37.2451 19.3496C37.2451 18.0599 37.571 17.071 38.2227 16.3828C38.8789 15.6947 39.7288 15.3506 40.7725 15.3506Z" fill="white"/>
</svg>
